<?xml version="1.0" standalone="no"?>
<!DOCTYPE svg PUBLIC "-//W3C//DTD SVG 20010904//EN"
 "http://www.w3.org/TR/2001/REC-SVG-20010904/DTD/svg10.dtd">
<svg version="1.0" xmlns="http://www.w3.org/2000/svg"
 width="800.000000pt" height="800.000000pt" viewBox="0 0 800.000000 800.000000"
 preserveAspectRatio="xMidYMid meet">
<metadata>
Created by potrace 1.14, written by Peter Selinger 2001-2017
</metadata>
<g transform="translate(0.000000,800.000000) scale(0.100000,-0.100000)"
fill="#000000" stroke="none">
<path d="M0 4000 l0 -4000 4000 0 4000 0 0 4000 0 4000 -4000 0 -4000 0 0
-4000z m3104 3694 c171 -33 321 -92 459 -180 82 -53 226 -189 266 -252 65
-104 61 25 60 -1921 -1 -971 -5 -2382 -8 -3136 l-6 -1370 -28 -53 c-16 -30
-64 -91 -108 -137 -130 -135 -274 -224 -460 -283 -317 -102 -579 -101 -794 2
-150 71 -250 171 -345 346 -88 163 -137 198 -337 246 -226 53 -392 137 -532
270 -226 213 -311 499 -251 849 23 135 24 147 9 198 -18 66 -59 100 -205 171
-168 82 -259 143 -352 236 -124 124 -203 265 -252 445 -28 103 -37 298 -20
415 29 203 28 211 -30 274 -21 23 -51 66 -67 96 -25 48 -28 66 -28 145 0 97 9
124 87 255 l32 55 1 210 c1 195 3 217 28 310 81 301 308 557 607 686 49 21
120 94 120 124 0 6 13 24 29 39 44 42 53 93 36 211 -19 131 -19 296 0 384 70
335 317 584 690 696 50 15 108 37 130 48 100 50 216 155 325 294 78 98 126
150 181 195 90 73 218 128 344 148 79 12 318 3 419 -16z m2391 -8 c156 -40
254 -93 350 -190 87 -88 135 -167 175 -291 34 -106 45 -123 88 -134 20 -6 53
-11 73 -11 60 0 200 -28 284 -56 265 -88 464 -261 575 -497 57 -121 80 -227
80 -367 0 -140 -10 -203 -55 -359 -40 -136 -40 -141 -21 -141 32 0 231 -72
309 -111 233 -117 419 -312 506 -529 47 -119 65 -226 65 -385 0 -155 -13 -237
-69 -434 -42 -150 -44 -211 -11 -318 94 -298 108 -506 52 -726 -51 -199 -120
-323 -255 -457 -132 -131 -257 -204 -478 -280 -68 -23 -123 -47 -123 -54 0 -6
17 -81 37 -166 35 -146 37 -165 37 -315 0 -182 -11 -236 -74 -372 -91 -194
-230 -333 -435 -436 -126 -63 -209 -86 -362 -102 -177 -18 -183 -22 -236 -183
-97 -291 -328 -454 -677 -477 -205 -13 -427 28 -607 115 -201 96 -368 228
-427 339 -59 111 -56 -114 -56 3266 0 1927 3 3122 9 3142 19 64 76 157 133
215 139 141 435 289 663 332 120 23 322 15 450 -18z"/>
<path d="M2750 7530 c-89 -11 -212 -53 -277 -96 -94 -63 -183 -183 -183 -247
0 -15 10 -56 22 -92 20 -64 21 -68 5 -119 -28 -87 -23 -120 35 -235 74 -145
94 -164 210 -191 51 -12 108 -28 127 -36 63 -26 79 -20 232 94 79 59 252 186
383 282 132 96 262 193 290 216 87 69 75 103 -79 218 -224 167 -488 238 -765
206z"/>
<path d="M3290 6654 c-247 -185 -397 -303 -402 -317 -3 -12 -7 -65 -7 -117 -1
-52 -8 -120 -15 -150 -7 -31 -10 -67 -5 -82 4 -16 101 -135 215 -265 341 -389
607 -688 616 -691 4 -2 8 429 8 957 0 529 -3 961 -7 961 -5 -1 -186 -134 -403
-296z"/>
<path d="M1831 6870 c-203 -43 -404 -160 -513 -300 -99 -128 -140 -251 -139
-424 1 -206 26 -280 117 -342 28 -19 61 -49 73 -65 25 -34 51 -101 51 -133 0
-51 24 -99 76 -155 62 -67 83 -78 117 -59 13 7 143 137 289 288 192 200 268
286 277 313 10 30 10 49 -3 107 -28 122 -20 175 41 264 18 27 36 60 39 73 14
53 -2 120 -47 198 -106 187 -232 265 -378 235z"/>
<path d="M2654 5851 l-41 -39 -7 -114 c-3 -62 -11 -272 -17 -466 l-11 -353 27
-38 c43 -63 132 -158 170 -181 l34 -21 388 86 c213 47 396 88 406 91 15 5 13
10 -15 43 -18 21 -222 255 -453 521 -231 266 -425 490 -430 497 -8 11 -19 5
-51 -26z"/>
<path d="M2335 5841 c-26 -12 -136 -116 -312 -293 -216 -217 -273 -279 -273
-300 0 -20 20 -42 93 -104 50 -43 139 -121 197 -174 58 -53 123 -109 145 -123
61 -41 131 -36 208 16 l27 18 0 454 c0 405 -2 458 -17 490 -9 19 -19 35 -22
35 -3 0 -24 -9 -46 -19z"/>
<path d="M824 5360 c-108 -55 -208 -134 -279 -220 -54 -65 -128 -210 -151
-295 -19 -69 -30 -268 -20 -349 7 -54 8 -55 44 -61 20 -3 72 -18 115 -32 45
-14 88 -22 102 -19 14 4 164 152 358 354 226 234 362 367 417 407 l82 60 -82
79 -82 78 -51 -7 c-112 -16 -158 -12 -231 23 -37 17 -80 32 -95 32 -15 0 -72
-23 -127 -50z"/>
<path d="M1485 4988 c-257 -264 -702 -737 -714 -761 -9 -17 -11 -31 -5 -37 10
-10 125 14 589 120 149 34 362 81 474 105 242 52 243 52 260 160 7 41 10 84 6
95 -5 17 -284 267 -420 378 -66 53 -85 47 -190 -60z"/>
<path d="M3350 4570 c-485 -112 -510 -119 -547 -156 -40 -39 -43 -82 -10 -135
19 -31 893 -969 903 -969 4 0 -5 899 -12 1138 -5 169 -8 192 -23 191 -9 0
-149 -31 -311 -69z"/>
<path d="M1460 4146 c-338 -78 -624 -147 -635 -153 -38 -21 -57 -50 -47 -70
21 -38 67 -67 422 -269 323 -183 371 -208 418 -212 65 -6 121 17 156 62 13 17
110 171 216 341 126 203 194 322 197 346 5 31 1 39 -31 67 -20 18 -47 32 -59
31 -12 -1 -299 -65 -637 -143z"/>
<path d="M2585 4163 c-10 -3 -29 -12 -41 -20 -15 -9 -43 -14 -78 -12 -45 2
-60 -2 -88 -23 -33 -25 -401 -604 -433 -682 -19 -45 -19 -119 -1 -154 26 -49
79 -89 241 -180 88 -49 227 -128 309 -176 190 -110 225 -116 307 -60 20 14 54
28 75 31 45 7 63 18 75 50 8 21 52 386 79 656 15 145 8 158 -161 334 -240 251
-236 247 -284 236z"/>
<path d="M518 3736 c-100 -27 -133 -82 -147 -246 -17 -192 23 -398 106 -540
47 -80 159 -200 236 -252 32 -22 92 -56 133 -75 103 -49 130 -45 315 45 l146
70 60 94 c170 264 200 333 174 397 -18 41 -53 63 -481 304 -375 211 -387 217
-440 216 -30 0 -76 -6 -102 -13z"/>
<path d="M3192 3468 c-7 -57 -24 -202 -39 -323 -16 -136 -24 -234 -19 -258 5
-27 24 -54 67 -100 34 -34 75 -77 91 -95 45 -47 82 -55 231 -44 173 12 171 9
175 180 5 184 -3 211 -95 319 -82 96 -381 416 -393 421 -4 1 -12 -44 -18 -100z"/>
<path d="M1745 3048 c-56 -30 -102 -90 -213 -275 -92 -152 -99 -215 -25 -229
71 -13 934 37 1070 62 42 8 42 25 1 56 -41 31 -623 363 -672 383 -41 17 -132
19 -161 3z"/>
<path d="M3323 2445 c-58 -35 -98 -116 -90 -183 7 -57 415 -924 452 -962 l25
-25 0 598 0 597 -172 0 c-167 0 -175 -1 -215 -25z"/>
<path d="M2305 2409 c-66 -5 -269 -17 -452 -28 -365 -20 -352 -17 -424 -92
-20 -20 -68 -53 -107 -74 -103 -54 -107 -60 -136 -215 l-24 -135 18 -102 c35
-197 78 -284 199 -403 73 -73 102 -94 191 -138 91 -45 257 -102 295 -102 7 0
60 31 117 68 56 38 126 80 153 95 59 32 35 -4 335 511 176 301 234 409 237
440 5 40 2 46 -57 114 l-63 72 -81 -1 c-45 -1 -135 -6 -201 -10z"/>
<path d="M2888 2157 c-14 -13 -60 -86 -103 -163 -43 -76 -157 -274 -253 -439
-230 -393 -224 -381 -216 -476 6 -72 5 -79 -22 -125 -56 -96 -30 -194 86 -317
119 -128 300 -187 538 -174 257 13 505 112 678 270 64 58 84 92 84 143 0 47
-569 1232 -613 1276 -25 25 -36 28 -91 28 -52 0 -67 -4 -88 -23z"/>
<path d="M5244 7530 c-21 -8 -21 -13 -27 -551 -4 -298 -7 -649 -7 -780 0 -274
5 -299 71 -345 88 -61 133 -168 111 -264 -46 -200 -294 -277 -440 -137 -51 49
-75 102 -80 184 -6 93 16 140 102 216 45 40 65 65 70 89 4 18 4 381 0 806 l-7
774 -36 -7 c-60 -11 -221 -75 -299 -119 -93 -52 -192 -132 -230 -188 -67 -98
-62 167 -62 -3196 l0 -3044 133 70 c72 38 211 111 307 161 202 106 240 139
260 222 26 113 92 186 191 209 28 7 68 9 91 6 52 -8 126 -47 160 -83 69 -72
90 -199 48 -284 -66 -131 -189 -186 -315 -139 -125 46 -129 45 -362 -75 -464
-239 -473 -245 -438 -298 21 -33 167 -133 263 -181 161 -81 314 -116 505 -116
172 0 290 28 389 92 134 85 208 211 248 416 22 115 32 138 57 146 10 3 86 4
168 4 167 -1 235 11 360 63 66 27 154 79 210 124 17 13 17 17 5 29 -8 8 -366
218 -795 466 -429 248 -793 465 -810 481 l-30 29 -5 388 c-6 435 -3 417 -83
484 -89 74 -123 205 -78 303 38 84 151 155 246 155 164 0 296 -170 251 -323
-17 -58 -56 -115 -99 -143 -15 -11 -37 -33 -48 -51 -19 -30 -20 -53 -24 -336
-3 -299 -3 -305 19 -353 41 -88 92 -128 316 -249 179 -97 477 -267 760 -435
424 -251 464 -273 499 -274 44 -1 70 35 108 148 24 73 27 95 27 231 0 125 -5
170 -27 267 -48 217 -99 289 -274 384 -132 71 -644 364 -676 386 -15 11 -36
37 -47 58 -19 37 -20 61 -20 427 0 213 -3 406 -7 427 -5 32 -19 52 -74 104
-52 50 -72 77 -85 115 -43 128 29 286 152 333 64 24 168 15 229 -20 87 -51
146 -166 131 -258 -10 -59 -31 -96 -102 -169 -34 -36 -66 -77 -69 -90 -3 -13
-5 -194 -3 -401 l3 -378 35 -34 c39 -38 771 -462 836 -484 36 -12 50 -11 125
7 267 66 508 265 615 508 80 180 92 444 29 648 -62 205 -69 378 -20 550 62
222 65 236 65 344 -1 99 -11 185 -23 197 -5 6 -141 -70 -478 -267 -132 -77
-190 -117 -200 -136 -19 -37 -26 -619 -9 -685 9 -32 27 -58 75 -103 98 -93
120 -157 90 -261 -13 -46 -28 -69 -74 -114 -63 -62 -107 -80 -192 -80 -144 0
-258 128 -247 277 6 76 28 119 94 187 30 30 59 67 65 83 8 19 13 144 14 388 1
315 4 364 18 392 24 45 51 69 127 110 247 135 618 351 637 369 33 33 29 63
-19 135 -114 173 -297 302 -543 385 -116 38 -142 41 -188 18 -69 -35 -1404
-808 -1435 -831 -37 -28 -56 -62 -66 -118 -16 -87 -71 -161 -148 -201 -100
-51 -197 -38 -283 38 -144 127 -121 331 47 423 65 36 142 39 235 11 39 -12 73
-16 95 -12 30 5 409 215 541 298 83 53 81 44 78 443 -1 229 -6 364 -14 390 -8
27 -29 56 -65 90 -122 113 -135 258 -35 375 123 144 350 111 439 -63 56 -108
42 -193 -46 -279 -107 -104 -105 -92 -108 -471 l-3 -329 23 7 c13 4 109 58
213 120 105 62 232 134 282 160 106 54 175 121 217 209 14 29 37 111 52 182
22 109 25 146 21 234 -20 395 -306 699 -694 739 -56 6 -116 6 -155 1 -163 -24
-177 -15 -212 146 -13 60 -34 135 -46 166 -56 150 -212 285 -371 323 -69 16
-191 19 -225 5z"/>
</g>
</svg>
