<svg width="177" height="177" viewBox="0 0 177 177" fill="none" xmlns="http://www.w3.org/2000/svg">
<rect x="1" y="1" width="175" height="175" rx="24" fill="white" stroke="#EBEFF6" stroke-width="1.5"/>
<path d="M88.0117 88.4996C88.0117 77.6177 96.8332 68.7959 107.715 68.7959C118.597 68.7959 127.419 77.6177 127.419 88.4996C127.419 99.3817 118.597 108.203 107.715 108.203C96.8332 108.203 88.0117 99.3817 88.0117 88.4996Z" fill="#1ABCFE"/>
<path d="M48.5996 127.908C48.5996 117.026 57.4211 108.204 68.3031 108.204H88.0065V127.908C88.0065 138.79 79.1851 147.611 68.3031 147.611C57.4211 147.611 48.5996 138.79 48.5996 127.908Z" fill="#0ACF83"/>
<path d="M88.0117 29.3889V68.7961H107.715C118.597 68.7961 127.419 59.9746 127.419 49.0926C127.419 38.2106 118.597 29.3889 107.715 29.3889H88.0117Z" fill="#FF7262"/>
<path d="M48.5996 49.0926C48.5996 59.9746 57.4211 68.7961 68.3031 68.7961H88.0065V29.3889H68.3031C57.4211 29.3889 48.5996 38.2105 48.5996 49.0926Z" fill="#F24E1E"/>
<path d="M48.5996 88.4996C48.5996 99.3817 57.4211 108.203 68.3031 108.203H88.0065V68.7959H68.3031C57.4211 68.7959 48.5996 77.6177 48.5996 88.4996Z" fill="#A259FF"/>
</svg>
