<svg width="177" height="177" viewBox="0 0 177 177" fill="none" xmlns="http://www.w3.org/2000/svg">
<rect x="1" y="1" width="175" height="175" rx="24" fill="white" stroke="#EBEFF6" stroke-width="1.5"/>
<path d="M139.611 29.3889C144.029 29.3889 147.611 32.9706 147.611 37.3889V139.611C147.611 144.029 144.029 147.611 139.611 147.611H37.3887C32.9704 147.611 29.3887 144.029 29.3887 139.611V37.3889C29.3887 32.9706 32.9704 29.3889 37.3887 29.3889H139.611Z" fill="#4353FF"/>
<path d="M109.455 78.9246C109.455 78.9246 103.455 97.7219 103.012 99.3179C102.834 97.7515 98.4603 63.9695 98.4603 63.9695C88.234 63.9695 82.7958 71.2402 79.8994 78.9246C79.8994 78.9246 72.5991 97.781 72.008 99.3475C71.9785 97.8697 70.8849 79.1019 70.8849 79.1019C70.2643 69.6737 61.6636 63.9695 54.6885 63.9695L63.0823 115.13C73.7814 115.101 79.5447 107.859 82.5594 100.145C82.5594 100.145 88.9729 83.5057 89.2389 82.7668C89.298 83.4761 93.8496 115.13 93.8496 115.13C104.578 115.13 110.371 108.362 113.474 100.943L128.518 63.9695C117.908 63.9695 112.322 71.2106 109.455 78.9246Z" fill="white"/>
</svg>
