<svg width="177" height="177" viewBox="0 0 177 177" fill="none" xmlns="http://www.w3.org/2000/svg">
<rect x="1" y="1" width="175" height="175" rx="24" fill="white" stroke="#EBEFF6" stroke-width="1.5"/>
<rect x="29.2695" y="29.2695" width="118.222" height="118.222" rx="8" fill="#000008"/>
<path d="M95.8334 71.3434C94.0088 72.2558 93.2181 73.9588 93.2181 78.5814C93.2181 78.5814 94.1304 77.669 95.5901 77.1216C96.6545 76.7263 97.4148 76.2093 97.9622 75.8139C99.5436 74.6279 99.7869 73.1985 99.7869 70.7048C99.7564 70.7048 97.2627 70.5527 95.8334 71.3434Z" fill="white"/>
<path d="M84.0624 72.4087C82.481 73.7164 82.0856 75.9668 82.0856 75.9668L76.9766 95.552L72.7799 79.525C72.3846 77.822 71.5939 75.7235 70.4079 74.2638C68.9481 72.4087 65.9071 72.287 65.5421 72.287C65.2684 72.287 62.2578 72.4087 60.6764 74.2638C59.4904 75.7235 58.6997 77.822 58.3043 79.525L54.3509 95.552L49.2419 75.9668C49.2419 75.9668 48.8466 73.8684 47.2652 72.4087C44.7715 70.1582 41.0918 70.7056 41.0918 70.7056L50.8233 107.352C50.8233 107.352 53.986 107.625 55.5674 106.835C57.6657 105.77 58.7301 105.01 59.9161 99.9921C61.1021 95.5216 64.2649 82.5054 64.5082 81.593C64.6298 81.1977 64.9035 80.0116 65.6942 80.0116C66.4849 80.0116 66.7586 81.076 66.8802 81.593C67.1539 82.5054 70.2862 95.5216 71.4723 99.9921C72.7799 104.98 73.6922 105.77 75.821 106.835C77.4024 107.625 80.5651 107.352 80.5651 107.352L90.2358 70.7056C90.2358 70.7056 86.556 70.1886 84.0624 72.4087Z" fill="white"/>
<path d="M99.758 78.5812C99.758 78.5812 99.0889 79.4936 97.7813 80.2843C96.869 80.8013 96.0783 81.075 95.1659 81.592C93.5846 82.3827 93.1892 83.1734 93.1892 84.3595V109.206C93.1892 109.206 95.6829 109.48 97.2643 108.689C99.3626 107.624 99.758 106.59 99.758 102.12V78.5812Z" fill="white"/>
<path d="M123.757 89.104L136.104 70.8265C136.104 70.8265 130.995 69.9142 128.349 72.2863C126.646 73.7461 124.943 76.4831 124.943 76.4831L120.472 83.052C120.199 83.4474 119.955 83.7211 119.56 83.7211C119.165 83.7211 118.769 83.3258 118.648 83.052L114.177 76.4831C114.177 76.4831 112.353 73.8677 110.771 72.2863C108.156 69.9142 103.017 70.8265 103.017 70.8265L114.968 89.0736L102.743 107.321C102.743 107.321 108.126 107.99 110.771 105.618C112.474 104.158 114.056 101.664 114.056 101.664L118.526 95.0951C118.8 94.6997 119.043 94.426 119.438 94.426C119.834 94.426 120.229 94.8214 120.351 95.0951L124.821 101.664C124.821 101.664 126.524 104.158 128.106 105.618C130.721 107.99 135.982 107.321 135.982 107.321L123.757 89.104Z" fill="white"/>
</svg>
